<?xml version="1.0" encoding="UTF-8" standalone="no"?>
<!-- Created with Inkscape (http://www.inkscape.org/) -->

<svg
   version="1.1"
   id="svg2"
   xml:space="preserve"
   width="56"
   height="56"
   viewBox="0 0 56 56"
   sodipodi:docname="hearthstone-logo.eps"
   xmlns:inkscape="http://www.inkscape.org/namespaces/inkscape"
   xmlns:sodipodi="http://sodipodi.sourceforge.net/DTD/sodipodi-0.dtd"
   xmlns="http://www.w3.org/2000/svg"
   xmlns:svg="http://www.w3.org/2000/svg"><defs
     id="defs6" /><sodipodi:namedview
     id="namedview4"
     pagecolor="#ffffff"
     bordercolor="#666666"
     borderopacity="1.0"
     inkscape:pageshadow="2"
     inkscape:pageopacity="0.0"
     inkscape:pagecheckerboard="0" /><g
     id="g8"
     inkscape:groupmode="layer"
     inkscape:label="ink_ext_XXXXXX"
     transform="matrix(1.3333333,0,0,-1.3333333,0,56)"><g
       id="g10"
       transform="scale(0.1)"><path
         d="m 88.9102,88.5898 36.9878,13.3202 0.313,0.078 0.59,22.5 z"
         style="fill:#000000;fill-opacity:1;fill-rule:nonzero;stroke:none"
         id="path12" /><path
         d="m 340,253.281 c -4.922,14.449 -12.23,27.969 -21.602,40 l 13.512,37.5 -36.129,-38.402 22.418,0.711 -25.308,-3.09 h -1.172 v 1.48 h -1.52 v 1.141 l 3.781,25.188 c -12.031,9.382 -25.539,16.679 -40,21.601 -28.082,9.34 -58.468,9.34 -86.601,0 -14.449,-4.922 -28,-12.301 -40,-21.789 l -37.5782,13.59 39.3012,-37.109 -0.704,23.707 3.512,-24.61 v -1.597 h -1.601 V 290 h -1.719 l -24.371,3.711 21.371,-0.82 -35.7892,37.89 13.4802,-37.5 c -9.4919,-11.953 -16.8318,-25.511 -21.8005,-40 -9.3321,-28.082 -9.3321,-58.48 0,-86.562 4.9687,-14.489 12.3086,-28.047 21.8005,-40 L 89.8789,89.6914 126.02,127.5 103.52,126.801 127.191,130 h 1.207 v -1.48 H 130 v -1.219 l -3.789,-25.11 c 12.027,-9.3394 25.551,-16.6402 40,-21.6012 28.129,-9.1796 58.437,-9.1796 86.598,0 14.421,4.9219 27.929,12.1797 40,21.5192 h -1.008 c 1.48,0 1.48,0.7 1.398,0.981 v 6.129 c 0,2.261 0,4.57 -0.5,6.871 -0.508,2.308 -0.898,6.922 -1.41,10 l -1.289,1.211 0.898,0.789 c 0,0 0,0.89 0,1.398 h 1.723 v 1.532 h 0.899 c 3.781,-1.02 7.691,-1.918 11.48,-2.739 l 6.289,-0.98 3.121,-0.5 h 2.391 c 0,0 0.5,0 1.008,1.398 v -1.719 c 9.492,12 16.882,25.551 21.8,40 9.34,28.129 9.34,58.52 0,86.61 z M 243.52,236.41 c 0,5.578 -12.43,17.809 -12.43,17.809 l -26.602,-0.821 -18.078,-10.699 c -9.031,-24.179 6.481,-32.109 6.481,-32.109 l 9.41,6.129 c -3.711,1.441 -6.172,5 -6.281,8.98 0,7.391 10,7.821 19.101,5.391 9.098,-2.379 14.289,-20.699 13.981,-30 -0.313,-9.289 -13.981,-15.891 -13.981,-15.891 h -6.723 C 197.34,177.93 182.621,179.961 173.98,190 l -20,28.98 -2.769,24.219 1.488,11.41 10.5,3.481 8.91,11.91 30.512,18.09 1.789,-2.969 5.789,-2.82 7.692,4.5 33.589,-12.699 20,-26.801 8.008,-25.313 -2.578,-30 -11.601,-25.269 -10,-5.938 -1.52,-6.562 L 230,143.199 h -15.309 l -17.582,-4.801 -32.308,10 -4.801,6.993 c 0,0 46.289,17.89 62.5,25.308 9.18,3.789 16.172,11.449 19.219,20.903 l 3.871,1.988 c 0,0 -1.488,27.109 -2,32.82 z"
         style="fill:#000000;fill-opacity:1;fill-rule:nonzero;stroke:none"
         id="path14" /><path
         d="m 294.102,318.09 h 0.199 l -0.903,-22.699 38.204,36.211 0.117,0.117 z"
         style="fill:#000000;fill-opacity:1;fill-rule:nonzero;stroke:none"
         id="path16" /><path
         d="m 329.102,90.7813 -2.5,2.5 -5.122,5 -10,9.9997 c -5.582,5.43 -11.359,10.629 -17.179,15.699 0,-2.57 0,-5.269 0,-7.96 0,-2.739 0,-4.61 0,-6.918 v -6.09 c 0,0 0,-0.633 1.597,-0.821 h -1.597 l 36.597,-13.2105 c 0,0.5508 -0.386,0.9804 -0.898,1.0195 z"
         style="fill:#000000;fill-opacity:1;fill-rule:nonzero;stroke:none"
         id="path18" /><path
         d="m 317.191,126.211 h -5.589 c -2.114,0 -4.223,0.508 -6.293,0.59 -3.668,0.187 -7.34,0.187 -11.008,0 5.82,-6.492 11.597,-12.891 17.609,-19.18 l 10,-9.9999 5,-5.1211 2.5,-2.5 H 330 c 0.309,-0.1211 0.66,-0.1211 1.02,0 l -11.02,30 -1.988,5.699 v -1.597 c -0.313,2.109 -0.633,2.109 -0.821,2.109 z"
         style="fill:#000000;fill-opacity:1;fill-rule:nonzero;stroke:none"
         id="path20" /><path
         d="m 331.602,331.602 0.117,0.117 z"
         style="fill:#000000;fill-opacity:1;fill-rule:nonzero;stroke:none"
         id="path22" /><path
         d="m 352.191,211.602 62.93,-1.602 -68.519,40 c 3.558,-12.5 5.429,-25.391 5.589,-38.398 z"
         style="fill:#000000;fill-opacity:1;fill-rule:nonzero;stroke:none"
         id="path24" /><path
         d="m 352.191,208.398 c -0.203,-12.847 -2.07,-25.628 -5.589,-38.007 l 68.519,40 z M 208.398,352.109 210,415.121 170,346.48 c 13.012,3.75 26.48,5.629 40,5.629 z m 1.602,0 c 13.238,-0.078 26.449,-1.949 39.219,-5.629 L 210,415.121 211.602,352.109 Z M 210,4.87891 250,73.3984 C 237.621,69.8789 224.84,68.0117 211.988,67.8086 Z M 170,73.3984 210,4.87891 208.398,67.8086 C 195.391,67.9688 182.5,69.8398 170,73.3984 Z M 73.3984,250 4.87891,210 67.8086,211.602 C 67.9688,224.609 69.8398,237.5 73.3984,250 Z M 4.87891,210 73.3984,170 c -3.5195,12.379 -5.3867,25.16 -5.5898,38.012 z"
         style="fill:#000000;fill-opacity:1;fill-rule:nonzero;stroke:none"
         id="path26" /><path
         d="m 88.2813,331.719 0.1171,-0.117 z"
         style="fill:#000000;fill-opacity:1;fill-rule:nonzero;stroke:none"
         id="path28" /></g></g></svg>
